HIERARCHY
ROOT Hips
{
    OFFSET 0.000000 97.120003 0.000000
    CHANNELS 6 Xposition Yposition Zposition Yrotation Xrotation Zrotation
    JOINT RightUpLeg
    {
        OFFSET -11.000000 -0.000000 0.000000
        CHANNELS 3 Yrotation Xrotation Zrotation
        JOINT RightLeg
        {
            OFFSET 0.000000 -45.062000 0.000000
            CHANNELS 3 Yrotation Xrotation Zrotation
            JOINT RightFoot
            {
                OFFSET 0.000000 -42.057999 0.000000
                CHANNELS 3 Yrotation Xrotation Zrotation
                End Site
                {
                    OFFSET 0.000000 -10.000000 15.120000
                }
            }
        }
    }
    JOINT LeftUpLeg
    {
        OFFSET 11.000000 -0.000000 0.000000
        CHANNELS 3 Yrotation Xrotation Zrotation
        JOINT LeftLeg
        {
            OFFSET 0.000000 -45.062000 0.000000
            CHANNELS 3 Yrotation Xrotation Zrotation
            JOINT LeftFoot
            {
                OFFSET 0.000000 -42.057999 0.000000
                CHANNELS 3 Yrotation Xrotation Zrotation
                End Site
                {
                    OFFSET 0.000000 -10.000000 15.120000
                }
            }
        }
    }
    JOINT Spine
    {
        OFFSET 0.000000 8.120000 0.000000
        CHANNELS 3 Yrotation Xrotation Zrotation
        JOINT Spine1
        {
            OFFSET 0.000000 17.980000 0.000000
            CHANNELS 3 Yrotation Xrotation Zrotation
            JOINT Spine2
            {
                OFFSET 0.000000 12.760000 0.000000
                CHANNELS 3 Yrotation Xrotation Zrotation
                JOINT Neck
                {
                    OFFSET 0.000000 19.139999 0.000000
                    CHANNELS 3 Yrotation Xrotation Zrotation
                    JOINT Neck1
                    {
                        OFFSET 0.000000 4.250000 0.000000
                        CHANNELS 3 Yrotation Xrotation Zrotation
                        JOINT Head
                        {
                            OFFSET 0.000000 4.250000 0.000000
                            CHANNELS 3 Yrotation Xrotation Zrotation
                            End Site
                            {
                                OFFSET 0.000000 19.120001 0.000000
                            }
                        }
                    }
                }
                JOINT RightShoulder
                {
                    OFFSET -2.900000 13.340000 0.000000
                    CHANNELS 3 Yrotation Xrotation Zrotation
                    JOINT RightArm
                    {
                        OFFSET -16.100000 0.000000 0.000000
                        CHANNELS 3 Yrotation Xrotation Zrotation
                        JOINT RightForeArm
                        {
                            OFFSET -28.000000 0.000000 0.000000
                            CHANNELS 3 Yrotation Xrotation Zrotation
                            JOINT RightHand
                            {
                                OFFSET -26.000000 0.000000 0.000000
                                CHANNELS 3 Yrotation Xrotation Zrotation
                                JOINT RightHandThumb1
                                {
                                    OFFSET -1.937000 -0.484000 2.518000
                                    CHANNELS 3 Yrotation Xrotation Zrotation
                                    JOINT RightHandThumb2
                                    {
                                        OFFSET -3.872000 0.000000 0.000000
                                        CHANNELS 3 Yrotation Xrotation Zrotation
                                        JOINT RightHandThumb3
                                        {
                                            OFFSET -2.690000 0.000000 0.000000
                                            CHANNELS 3 Yrotation Xrotation Zrotation
                                            End Site
                                            {
                                                OFFSET -2.537000 0.000000 0.000000
                                            }
                                        }
                                    }
                                }
                                JOINT RightInHandIndex
                                {
                                    OFFSET -3.389000 0.535000 2.080000
                                    CHANNELS 3 Yrotation Xrotation Zrotation
                                    JOINT RightHandIndex1
                                    {
                                        OFFSET -5.485000 -0.096000 1.051000
                                        CHANNELS 3 Yrotation Xrotation Zrotation
                                        JOINT RightHandIndex2
                                        {
                                            OFFSET -3.806000 0.000000 0.000000
                                            CHANNELS 3 Yrotation Xrotation Zrotation
                                            JOINT RightHandIndex3
                                            {
                                                OFFSET -2.158000 0.000000 0.000000
                                                CHANNELS 3 Yrotation Xrotation Zrotation
                                                End Site
                                                {
                                                    OFFSET -1.898000 0.000000 0.000000
                                                }
                                            }
                                        }
                                    }
                                }
                                JOINT RightInHandMiddle
                                {
                                    OFFSET -3.556000 0.544000 0.796000
                                    CHANNELS 3 Yrotation Xrotation Zrotation
                                    JOINT RightHandMiddle1
                                    {
                                        OFFSET -5.441000 -0.088000 0.330000
                                        CHANNELS 3 Yrotation Xrotation Zrotation
                                        JOINT RightHandMiddle2
                                        {
                                            OFFSET -4.153000 0.000000 0.000000
                                            CHANNELS 3 Yrotation Xrotation Zrotation
                                            JOINT RightHandMiddle3
                                            {
                                                OFFSET -2.603000 0.000000 0.000000
                                                CHANNELS 3 Yrotation Xrotation Zrotation
                                                End Site
                                                {
                                                    OFFSET -2.076000 0.000000 0.000000
                                                }
                                            }
                                        }
                                    }
                                }
                                JOINT RightInHandRing
                                {
                                    OFFSET -3.539000 0.566000 -0.136000
                                    CHANNELS 3 Yrotation Xrotation Zrotation
                                    JOINT RightHandRing1
                                    {
                                        OFFSET -4.873000 -0.023000 -0.504000
                                        CHANNELS 3 Yrotation Xrotation Zrotation
                                        JOINT RightHandRing2
                                        {
                                            OFFSET -3.619000 0.000000 0.000000
                                            CHANNELS 3 Yrotation Xrotation Zrotation
                                            JOINT RightHandRing3
                                            {
                                                OFFSET -2.511000 0.000000 0.000000
                                                CHANNELS 3 Yrotation Xrotation Zrotation
                                                End Site
                                                {
                                                    OFFSET -1.952000 0.000000 0.000000
                                                }
                                            }
                                        }
                                    }
                                }
                                JOINT RightInHandPinky
                                {
                                    OFFSET -3.324000 0.494000 -1.264000
                                    CHANNELS 3 Yrotation Xrotation Zrotation
                                    JOINT RightHandPinky1
                                    {
                                        OFFSET -4.354000 -0.023000 -1.147000
                                        CHANNELS 3 Yrotation Xrotation Zrotation
                                        JOINT RightHandPinky2
                                        {
                                            OFFSET -2.898000 0.000000 0.000000
                                            CHANNELS 3 Yrotation Xrotation Zrotation
                                            JOINT RightHandPinky3
                                            {
                                                OFFSET -1.831000 0.000000 0.000000
                                                CHANNELS 3 Yrotation Xrotation Zrotation
                                                End Site
                                                {
                                                    OFFSET -1.730000 0.000000 0.000000
                                                }
                                            }
                                        }
                                    }
                                }
                            }
                        }
                    }
                }
                JOINT LeftShoulder
                {
                    OFFSET 2.900000 13.340000 0.000000
                    CHANNELS 3 Yrotation Xrotation Zrotation
                    JOINT LeftArm
                    {
                        OFFSET 16.100000 0.000000 0.000000
                        CHANNELS 3 Yrotation Xrotation Zrotation
                        JOINT LeftForeArm
                        {
                            OFFSET 28.000000 0.000000 0.000000
                            CHANNELS 3 Yrotation Xrotation Zrotation
                            JOINT LeftHand
                            {
                                OFFSET 26.000000 0.000000 0.000000
                                CHANNELS 3 Yrotation Xrotation Zrotation
                                JOINT LeftHandThumb1
                                {
                                    OFFSET 1.937000 -0.484000 2.518000
                                    CHANNELS 3 Yrotation Xrotation Zrotation
                                    JOINT LeftHandThumb2
                                    {
                                        OFFSET 3.872000 0.000000 0.000000
                                        CHANNELS 3 Yrotation Xrotation Zrotation
                                        JOINT LeftHandThumb3
                                        {
                                            OFFSET 2.690000 0.000000 0.000000
                                            CHANNELS 3 Yrotation Xrotation Zrotation
                                            End Site
                                            {
                                                OFFSET 2.537000 0.000000 0.000000
                                            }
                                        }
                                    }
                                }
                                JOINT LeftInHandIndex
                                {
                                    OFFSET 3.389000 0.535000 2.080000
                                    CHANNELS 3 Yrotation Xrotation Zrotation
                                    JOINT LeftHandIndex1
                                    {
                                        OFFSET 5.485000 -0.096000 1.051000
                                        CHANNELS 3 Yrotation Xrotation Zrotation
                                        JOINT LeftHandIndex2
                                        {
                                            OFFSET 3.806000 0.000000 0.000000
                                            CHANNELS 3 Yrotation Xrotation Zrotation
                                            JOINT LeftHandIndex3
                                            {
                                                OFFSET 2.158000 0.000000 0.000000
                                                CHANNELS 3 Yrotation Xrotation Zrotation
                                                End Site
                                                {
                                                    OFFSET 1.898000 0.000000 0.000000
                                                }
                                            }
                                        }
                                    }
                                }
                                JOINT LeftInHandMiddle
                                {
                                    OFFSET 3.556000 0.544000 0.796000
                                    CHANNELS 3 Yrotation Xrotation Zrotation
                                    JOINT LeftHandMiddle1
                                    {
                                        OFFSET 5.441000 -0.088000 0.330000
                                        CHANNELS 3 Yrotation Xrotation Zrotation
                                        JOINT LeftHandMiddle2
                                        {
                                            OFFSET 4.153000 0.000000 0.000000
                                            CHANNELS 3 Yrotation Xrotation Zrotation
                                            JOINT LeftHandMiddle3
                                            {
                                                OFFSET 2.603000 0.000000 0.000000
                                                CHANNELS 3 Yrotation Xrotation Zrotation
                                                End Site
                                                {
                                                    OFFSET 2.076000 0.000000 0.000000
                                                }
                                            }
                                        }
                                    }
                                }
                                JOINT LeftInHandRing
                                {
                                    OFFSET 3.539000 0.566000 -0.136000
                                    CHANNELS 3 Yrotation Xrotation Zrotation
                                    JOINT LeftHandRing1
                                    {
                                        OFFSET 4.873000 -0.023000 -0.504000
                                        CHANNELS 3 Yrotation Xrotation Zrotation
                                        JOINT LeftHandRing2
                                        {
                                            OFFSET 3.619000 0.000000 0.000000
                                            CHANNELS 3 Yrotation Xrotation Zrotation
                                            JOINT LeftHandRing3
                                            {
                                                OFFSET 2.511000 0.000000 0.000000
                                                CHANNELS 3 Yrotation Xrotation Zrotation
                                                End Site
                                                {
                                                    OFFSET 1.952000 0.000000 0.000000
                                                }
                                            }
                                        }
                                    }
                                }
                                JOINT LeftInHandPinky
                                {
                                    OFFSET 3.324000 0.494000 -1.264000
                                    CHANNELS 3 Yrotation Xrotation Zrotation
                                    JOINT LeftHandPinky1
                                    {
                                        OFFSET 4.354000 -0.023000 -1.147000
                                        CHANNELS 3 Yrotation Xrotation Zrotation
                                        JOINT LeftHandPinky2
                                        {
                                            OFFSET 2.898000 0.000000 0.000000
                                            CHANNELS 3 Yrotation Xrotation Zrotation
                                            JOINT LeftHandPinky3
                                            {
                                                OFFSET 1.831000 0.000000 0.000000
                                                CHANNELS 3 Yrotation Xrotation Zrotation
                                                End Site
                                                {
                                                    OFFSET 1.730000 0.000000 0.000000
                                                }
                                            }
                                        }
                                    }
                                }
                            }
                        }
                    }
                }
            }
        }
    }
}
MOTION
Frames: 4
Frame Time: 0.010417
0.000000 97.119995 0.000000 0.000000 0.000000 0.000000 0.000000 0.000000 0.000000 0.000000 0.000000 0.000000 0.000000 0.000000 0.000000 0.000000 0.000000 0.000000 0.000000 0.000000 0.000000 0.000000 0.000000 0.000000 0.000000 0.000000 0.000000 0.000000 0.000000 0.000000 0.000000 0.000000 0.000000 0.000000 0.000000 0.000000 0.000000 0.000000 0.000000 0.000000 0.000000 0.000000 0.000000 0.000000 0.000000 0.000000 0.000000 0.000000 0.000000 0.000000 0.000000 0.000000 0.000000 0.000000 0.000000 0.000000 0.000000 0.000000 0.000000 0.000000 0.000000 0.000000 0.000000 0.000000 0.000000 0.000000 0.000000 0.000000 0.000000 0.000000 0.000000 0.000000 0.000000 0.000000 0.000000 0.000000 0.000000 0.000000 0.000000 0.000000 0.000000 0.000000 0.000000 0.000000 0.000000 0.000000 0.000000 0.000000 0.000000 0.000000 0.000000 0.000000 0.000000 0.000000 0.000000 0.000000 0.000000 0.000000 0.000000 0.000000 0.000000 0.000000 0.000000 0.000000 0.000000 0.000000 0.000000 0.000000 0.000000 0.000000 0.000000 0.000000 0.000000 0.000000 0.000000 0.000000 0.000000 0.000000 0.000000 0.000000 0.000000 0.000000 0.000000 0.000000 0.000000 0.000000 0.000000 0.000000 0.000000 0.000000 0.000000 0.000000 0.000000 0.000000 0.000000 0.000000 0.000000 0.000000 0.000000 0.000000 0.000000 0.000000 0.000000 0.000000 0.000000 0.000000 0.000000 0.000000 0.000000 0.000000 0.000000 0.000000 0.000000 0.000000 0.000000 0.000000 0.000000 0.000000 0.000000 0.000000 0.000000 0.000000 0.000000 0.000000 0.000000 0.000000 0.000000 0.000000 0.000000 0.000000 0.000000 0.000000 0.000000 0.000000 0.000000 0.000000 0.000000 0.000000 0.000000 0.000000
75.978416 97.177055 -41.201035 170.688934 -0.589913 -0.061574 7.060193 4.790299 -2.723596 174.687500 -179.884476 -178.258560 3.781045 -2.573977 1.689552 4.162952 5.643465 -0.242377 174.930618 -177.574219 -178.846527 8.047294 -1.151766 -1.355548 0.796463 1.107537 -0.366586 0.796426 1.089877 -0.621486 3.737840 0.864840 -0.735687 180.000000 -175.438477 -179.018646 179.999985 -174.678238 -178.983597 9.486304 -3.967868 -0.043137 4.837012 -2.299613 7.091249 177.729919 179.990692 -108.217903 6.220234 -12.883640 -2.850454 177.608337 -163.806107 178.595566 77.058945 34.855499 43.717297 180.000000 -179.999985 -169.658661 0.000000 -0.000000 6.887330 0.000000 -0.000000 0.000000 15.000004 -0.000001 10.555101 0.000000 -0.000000 8.635996 0.000000 -0.000000 6.045192 0.000000 -0.000000 0.000000 0.000001 -0.000000 9.902958 0.000001 -0.000001 9.902955 180.000000 -180.000000 -173.404617 0.000000 -0.000000 0.000000 170.000000 179.999985 -168.082718 0.000003 -0.000000 11.917275 0.000001 -0.000000 7.936910 0.000000 -0.000000 0.000000 160.000000 180.000000 -169.097031 0.000002 0.000001 16.354446 0.000000 0.000002 10.892068 175.135452 -176.515076 168.694534 2.910759 5.921761 -63.839512 172.572845 -175.883377 -179.204254 178.748322 -176.406525 172.067932 117.433434 134.785599 151.449570 180.000000 -180.000000 170.104752 0.000002 0.000004 -6.590230 0.000000 -0.000000 0.000000 165.000015 -180.000000 163.301224 0.000002 0.000000 -13.662615 0.000002 -0.000002 -9.563837 0.000000 -0.000000 0.000000 0.000000 0.000000 -19.617348 180.000000 180.000000 160.382645 0.000000 -0.000000 -13.065160 0.000000 -0.000000 0.000000 10.000002 0.000000 -19.463614 0.000000 0.000000 -19.463602 0.000000 0.000000 -12.962760 0.000000 -0.000000 0.000000 20.000002 -0.000001 -16.197916 0.000000 0.000000 -24.296875 180.000000 -180.000000 163.818283
75.976578 97.179298 -41.181492 170.666763 -0.610871 -0.061472 7.057936 4.799504 -2.725880 174.696091 -179.877457 -178.259491 3.796897 -2.555434 1.697708 4.185846 5.654319 -0.238476 174.927689 -177.570923 -178.849594 8.049300 -1.138641 -1.354837 0.797489 1.110671 -0.371381 0.797451 1.093002 -0.629520 3.742946 0.868187 -0.745790 180.000000 -175.457748 -179.027359 179.999985 -174.700714 -178.992615 9.417657 -3.950785 -0.041161 4.843360 -2.278604 7.142713 177.953461 -179.732269 -108.484177 6.550530 -12.799799 -2.919653 177.632019 -163.754150 178.795273 77.395638 34.261383 43.870228 0.000000 -0.000000 10.297208 180.000000 -179.999985 -173.142059 0.000000 -0.000000 0.000000 15.000002 -0.000003 10.415760 180.000000 179.999985 -171.478012 180.000000 179.999985 -174.034607 0.000000 -0.000000 0.000000 0.000000 0.000001 9.737841 0.000001 -0.000002 9.737847 0.000001 -0.000001 6.485400 0.000000 -0.000000 0.000000 170.000000 -180.000000 -168.284210 0.000001 0.000002 11.715787 180.000000 -180.000000 -172.197281 0.000000 -0.000000 0.000000 160.000000 -179.999985 -169.285873 180.000000 180.000000 -163.928802 0.000001 -0.000003 10.703411 175.090210 -176.491486 168.683472 2.706194 5.793039 -63.623875 172.305191 -175.984848 -179.199631 178.692444 -176.475723 171.760773 117.146568 134.854019 151.541962 180.000000 179.999985 170.302841 0.000000 0.000000 -6.458306 0.000000 -0.000000 0.000000 165.000015 180.000000 163.691513 0.000001 0.000002 -13.343299 0.000000 0.000000 -9.340312 0.000000 -0.000000 0.000000 0.000000 0.000000 -19.368444 0.000000 0.000000 -19.368439 0.000000 0.000000 -12.899387 0.000000 -0.000000 0.000000 10.000001 -0.000001 -19.302792 0.000000 0.000000 -19.302784 180.000000 -180.000000 167.144348 0.000000 -0.000000 0.000000 20.000002 -0.000001 -16.089464 0.000001 -0.000001 -24.134205 180.000000 180.000000 163.926620
75.974907 97.181435 -41.161518 170.642792 -0.632293 -0.061528 7.056304 4.809439 -2.728104 174.704330 -179.869736 -178.260147 3.814513 -2.535685 1.705458 4.205435 5.664557 -0.234716 174.928833 -177.568848 -178.852219 8.052365 -1.125605 -1.354766 0.798791 1.113593 -0.376114 0.798754 1.095915 -0.637453 3.749342 0.871399 -0.755749 180.000000 -175.476486 -179.035446 179.999985 -174.722565 -179.000992 9.353559 -3.934223 -0.039230 4.847539 -2.261602 7.196575 178.199112 -179.453445 -108.744087 6.878979 -12.727769 -2.989197 177.656006 -163.705734 179.004730 77.662392 33.758831 43.994736 0.000000 -0.000000 10.270419 180.000000 179.999985 -173.159897 0.000000 -0.000000 0.000000 15.000006 0.000001 10.268402 0.000002 -0.000000 8.401417 0.000002 -0.000002 5.880993 0.000000 -0.000000 0.000000 0.000001 -0.000001 9.583675 180.000000 180.000000 -170.416321 180.000000 180.000000 -173.617279 0.000000 -0.000000 0.000000 170.000000 179.999985 -168.482132 0.000001 -0.000000 11.517859 180.000000 179.999985 -172.329102 0.000000 -0.000000 0.000000 160.000015 -179.999985 -169.477066 180.000000 -180.000000 -164.215591 0.000002 0.000001 10.512419 175.043869 -176.472260 168.667419 2.497476 5.657383 -63.414688 172.020630 -176.077423 -179.196106 178.634140 -176.552979 171.467087 116.882729 134.928513 151.643097 0.000000 -0.000003 -9.509065 0.000000 -0.000003 -6.333042 0.000000 -0.000000 0.000000 165.000000 -180.000000 164.086639 180.000000 -180.000000 166.979980 0.000000 0.000000 -9.114016 0.000000 -0.000000 0.000000 180.000000 -180.000000 160.881653 180.000000 -180.000000 160.881653 0.000000 -0.000000 -12.732823 0.000000 -0.000000 0.000000 10.000001 -0.000001 -19.143866 0.000000 0.000000 -19.143867 0.000000 0.000000 -12.749816 0.000000 -0.000000 0.000000 20.000000 -0.000000 -15.983402 180.000000 180.000000 156.024887 0.000001 0.000000 -15.967425
